<svg xmlns="http://www.w3.org/2000/svg" width="24" height="24" viewBox="0 0 24 24" fill="none" stroke="currentColor" stroke-width="2" stroke-linecap="round" stroke-linejoin="round" class="icon icon-tabler icons-tabler-outline icon-tabler-recorder"><path stroke="none" d="M0 0h24v24H0z" fill="none"/><rect x="3" y="4" width="18" height="16" rx="1.5"/><circle cx="5.5" cy="6.5" r="0.6"/><circle cx="18.5" cy="6.5" r="0.6"/><circle cx="5.5" cy="17.5" r="0.6"/><circle cx="18.5" cy="17.5" r="0.6"/><rect x="9" y="10" width="6" height="4" rx="0.3"/><path d="M10 10 L10 9"/><path d="M12 10 L12 9"/><path d="M14 10 L14 9"/><path d="M10 14 L10 15"/><path d="M12 14 L12 15"/><path d="M14 14 L14 15"/><path d="M9 11 L8 11"/><path d="M9 13 L8 13"/><path d="M15 11 L16 11"/><path d="M15 13 L16 13"/><rect x="3" y="11" width="2" height="2.5" rx="0.3"/><rect x="19" y="11" width="2" height="2.5" rx="0.3"/></svg>
