<svg width="116" height="113" xmlns="http://www.w3.org/2000/svg" version="1.0" preserveAspectRatio="xMidYMid meet">
 <g>
  <title>Layer 1</title>
  <g transform="translate(0 113) scale(0.1 -0.1)" fill="#000000" id="svg_1">
   <path d="m862.33333,1085c-113,-40 -145,-173 -62,-253c64,-62 150,-61 213,2c115,115 1,305 -151,251zm75,-119c19,-23 8,-61 -18,-64c-13,-2 -30,2 -38,8c-14,13 -19,51 -7,63c12,12 50,7 63,-7z" id="svg_2"/>
   <path d="m342.86667,1065.53333c-127,-31 -185,-112 -193,-269c-6,-113 14,-186 66,-244c65,-72 68,-72 352,-78c249,-5 256,-6 288,-29l34,-24l-21,-21c-20,-19 -35,-21 -194,-26c-173,-5 -208,-12 -221,-45c-9,-24 11,-54 39,-61c46,-11 348,1 374,15c33,18 24,-6 -13,-33c-24,-19 -46,-22 -203,-26c-158,-5 -176,-7 -189,-24c-19,-26 -18,-32 7,-57c20,-20 29,-21 197,-17c148,3 183,7 212,22c103,54 145,148 137,303c-7,114 -32,173 -94,220c-60,45 -116,53 -361,53c-204,0 -219,1 -252,21l-35,22l35,28c34,29 35,29 166,29c73,0 144,4 157,9c33,13 41,47 16,72c-17,17 -34,19 -156,19c-89,-1 -151,-6 -175,-14c-47,-17 -49,-5 -5,28c32,25 40,26 165,26c72,0 142,4 155,9c36,14 41,48 12,77c-23,23 -30,24 -147,23c-68,-1 -136,-4 -153,-8zm-47,-433c10,-10 83,-14 270,-18c249,-5 258,-6 290,-28c43,-31 41,-43 -5,-26c-28,9 -102,13 -269,14l-231,0l-41,30c-23,17 -42,32 -42,35c0,9 16,5 28,-7z" id="svg_3"/>
   <path d="m162.33333,385c-113,-40 -145,-173 -62,-253c64,-62 150,-61 213,2c115,115 1,305 -151,251zm75,-119c6,-8 10,-25 8,-38c-3,-26 -41,-37 -64,-18c-14,13 -19,51 -7,63c12,12 50,7 63,-7z" id="svg_4"/>
  </g>
  <path id="svg_7" d="m5.0707,4.83333l104.24242,102.42425" opacity="undefined" stroke-linecap="undefined" stroke-linejoin="undefined" stroke-width="10" stroke="#000" fill="none"/>
  <line stroke-linecap="undefined" stroke-linejoin="undefined" id="svg_5" y2="4.87333" x2="110.53333" y1="109.14" x1="4.13333" stroke-width="10" stroke="#000" fill="none"/>
 </g>

</svg>