<?xml version="1.0" standalone="no"?>
<!DOCTYPE svg PUBLIC "-//W3C//DTD SVG 20010904//EN"
 "http://www.w3.org/TR/2001/REC-SVG-20010904/DTD/svg10.dtd">
<svg version="1.0" xmlns="http://www.w3.org/2000/svg"
 width="116.000000pt" height="113.000000pt" viewBox="0 0 116.000000 113.000000"
 preserveAspectRatio="xMidYMid meet">

<g transform="translate(0.000000,113.000000) scale(0.100000,-0.100000)"
fill="#000000" stroke="none">
<path d="M865 1085 c-113 -40 -145 -173 -62 -253 64 -62 150 -61 213 2 115
115 1 305 -151 251z m75 -119 c19 -23 8 -61 -18 -64 -13 -2 -30 2 -38 8 -14
13 -19 51 -7 63 12 12 50 7 63 -7z"/>
<path d="M345 1061 c-127 -31 -185 -112 -193 -269 -6 -113 14 -186 66 -244 65
-72 68 -72 352 -78 249 -5 256 -6 288 -29 l34 -24 -21 -21 c-20 -19 -35 -21
-194 -26 -173 -5 -208 -12 -221 -45 -9 -24 11 -54 39 -61 46 -11 348 1 374 15
33 18 24 -6 -13 -33 -24 -19 -46 -22 -203 -26 -158 -5 -176 -7 -189 -24 -19
-26 -18 -32 7 -57 20 -20 29 -21 197 -17 148 3 183 7 212 22 103 54 145 148
137 303 -7 114 -32 173 -94 220 -60 45 -116 53 -361 53 -204 0 -219 1 -252 21
l-35 22 35 28 c34 29 35 29 166 29 73 0 144 4 157 9 33 13 41 47 16 72 -17 17
-34 19 -156 19 -89 -1 -151 -6 -175 -14 -47 -17 -49 -5 -5 28 32 25 40 26 165
26 72 0 142 4 155 9 36 14 41 48 12 77 -23 23 -30 24 -147 23 -68 -1 -136 -4
-153 -8z m-47 -433 c10 -10 83 -14 270 -18 249 -5 258 -6 290 -28 43 -31 41
-43 -5 -26 -28 9 -102 13 -269 14 l-231 0 -41 30 c-23 17 -42 32 -42 35 0 9
16 5 28 -7z"/>
<path d="M165 385 c-113 -40 -145 -173 -62 -253 64 -62 150 -61 213 2 115 115
1 305 -151 251z m75 -119 c6 -8 10 -25 8 -38 -3 -26 -41 -37 -64 -18 -14 13
-19 51 -7 63 12 12 50 7 63 -7z"/>
</g>
</svg>
