<?xml version="1.0" standalone="no"?>
<!DOCTYPE svg PUBLIC "-//W3C//DTD SVG 20010904//EN"
 "http://www.w3.org/TR/2001/REC-SVG-20010904/DTD/svg10.dtd">
<svg version="1.0" xmlns="http://www.w3.org/2000/svg"
 width="128.000000pt" height="128.000000pt" viewBox="0 0 128.000000 128.000000"
 preserveAspectRatio="xMidYMid meet">

<g transform="translate(0.000000,128.000000) scale(0.100000,-0.100000)"
fill="#000000" stroke="none">
<path d="M717 1085 c-32 -8 -90 -30 -130 -48 -161 -76 -271 -191 -365 -387
-30 -63 -74 -145 -98 -181 l-44 -67 0 -98 1 -99 35 40 c64 75 162 230 218 348
50 105 66 128 139 201 90 91 162 133 277 162 90 23 288 15 380 -15 36 -11 66
-21 68 -21 2 0 2 30 0 68 l-3 67 -55 19 c-74 26 -337 32 -423 11z"/>
<path d="M742 804 c-152 -41 -256 -140 -344 -332 -44 -96 -88 -164 -184 -285
-35 -45 -64 -85 -64 -89 0 -5 33 -8 73 -8 l72 0 71 96 c40 53 98 148 129 211
36 70 77 135 107 168 96 106 234 146 381 111 87 -20 122 -38 175 -89 l42 -41
0 85 c0 97 -4 104 -80 137 -115 49 -274 64 -378 36z"/>
<path d="M732 499 c-74 -36 -101 -67 -154 -173 -35 -69 -74 -132 -137 -217
-13 -18 -10 -19 61 -19 l75 0 29 43 c16 23 50 82 75 132 53 104 92 135 169
135 134 0 182 -111 126 -287 -7 -22 -5 -23 57 -23 l65 0 12 51 c17 71 9 194
-17 244 -69 133 -224 183 -361 114z"/>
</g>
</svg>
