<?xml version="1.0" encoding="utf-8"?><!-- Uploaded to: SVG Repo, www.svgrepo.com, Generator: SVG Repo Mixer Tools -->
<svg width="800px" height="800px" viewBox="0 0 24 24" fill="none" xmlns="http://www.w3.org/2000/svg">
<path fill-rule="evenodd" clip-rule="evenodd" d="M8.20705 5.1797C8.09094 5.35386 8 5.64834 8 6V12V15C8 15.5523 7.55228 16 7 16C6.44772 16 6 15.5523 6 15V12C6 11.6483 5.90906 11.3539 5.79295 11.1797C5.6966 11.0352 5.61209 11 5.5 11C5.38791 11 5.3034 11.0352 5.20705 11.1797C5.09094 11.3539 5 11.6483 5 12V16C5 17.033 5.70057 18.1402 7.0547 19.0429C8.3875 19.9315 10.1939 20.5 12 20.5C15.6675 20.5 18 18.251 18 16V12C18 11.6483 17.9091 11.3539 17.7929 11.1797C17.6966 11.0352 17.6121 11 17.5 11C17.3879 11 17.3034 11.0352 17.2071 11.1797C17.0909 11.3539 17 11.6483 17 12C17 12.5523 16.5523 13 16 13C15.4477 13 15 12.5523 15 12V11C15 10.6483 14.9091 10.3539 14.7929 10.1797C14.6966 10.0352 14.6121 10 14.5 10C14.3879 10 14.3034 10.0352 14.2071 10.1797C14.0909 10.3539 14 10.6483 14 11V11.5C14 12.0523 13.5523 12.5 13 12.5C12.4477 12.5 12 12.0523 12 11.5V11V10.5C12 10.1483 11.9091 9.85386 11.7929 9.6797C11.6966 9.53518 11.6121 9.5 11.5 9.5C11.3879 9.5 11.3034 9.53518 11.2071 9.6797C11.0909 9.85386 11 10.1483 11 10.5V11C11 11.5523 10.5523 12 10 12C9.44772 12 9 11.5523 9 11V10.5V6C9 5.64834 8.90906 5.35386 8.79295 5.1797C8.6966 5.03518 8.61209 5 8.5 5C8.38791 5 8.3034 5.03518 8.20705 5.1797ZM11 7.55195V6C11 5.35166 10.8409 4.64614 10.4571 4.0703C10.0534 3.46482 9.38791 3 8.5 3C7.61209 3 6.9466 3.46482 6.54295 4.0703C6.15906 4.64614 6 5.35166 6 6V9.05195C5.84222 9.01815 5.67545 9 5.5 9C4.61209 9 3.9466 9.46482 3.54295 10.0703C3.15906 10.6461 3 11.3517 3 12V16C3 17.967 4.29943 19.6098 5.9453 20.7071C7.6125 21.8185 9.80613 22.5 12 22.5C16.3325 22.5 20 19.749 20 16V12C20 11.3517 19.8409 10.6461 19.4571 10.0703C19.0534 9.46482 18.3879 9 17.5 9C17.1435 9 16.8229 9.07492 16.5407 9.20377C16.5141 9.15859 16.4862 9.11407 16.4571 9.0703C16.0534 8.46482 15.3879 8 14.5 8C14.0313 8 13.6245 8.12954 13.2855 8.34094C12.8757 7.85131 12.2719 7.5 11.5 7.5C11.3245 7.5 11.1578 7.51815 11 7.55195Z" fill="#000000"/>
</svg>