<?xml version="1.0" standalone="no"?>
<!DOCTYPE svg PUBLIC "-//W3C//DTD SVG 20010904//EN"
 "http://www.w3.org/TR/2001/REC-SVG-20010904/DTD/svg10.dtd">
<svg version="1.0" xmlns="http://www.w3.org/2000/svg"
 width="256.000000pt" height="256.000000pt" viewBox="0 0 256.000000 256.000000"
 preserveAspectRatio="xMidYMid meet">

<g transform="translate(0.000000,256.000000) scale(0.100000,-0.100000)"
fill="#000000" stroke="none">
<path d="M609 2305 c-28 -15 -37 -31 -89 -157 l-32 -78 -88 0 c-104 0 -133
-16 -151 -83 -22 -81 8 -243 59 -314 l20 -28 -32 -2 c-73 -5 -117 -121 -63
-170 29 -28 88 -43 162 -43 80 0 127 14 206 61 86 51 110 50 217 -8 l87 -48
112 0 111 0 91 48 c109 56 139 59 207 15 79 -51 135 -68 222 -68 98 0 141 12
223 61 39 24 78 39 97 39 19 0 67 -19 116 -44 94 -50 149 -62 233 -51 76 9
123 53 123 113 0 66 -24 85 -116 93 -66 5 -88 11 -131 39 -29 18 -53 36 -53
39 0 4 7 16 15 28 8 12 31 58 50 103 42 97 47 168 15 200 -19 19 -33 20 -312
20 l-292 0 -106 105 c-59 57 -124 113 -146 122 -34 16 -79 18 -384 20 -287 2
-349 0 -371 -12z m661 -212 l35 -23 -298 0 c-164 0 -296 3 -294 8 2 4 7 15 10
25 6 17 24 18 260 15 241 -3 254 -4 287 -25z m705 -254 c-26 -50 -85 -108
-134 -133 -25 -13 -68 -36 -96 -50 -64 -35 -101 -31 -190 22 -132 80 -250 80
-402 1 -50 -27 -102 -49 -113 -49 -12 0 -67 24 -122 53 -99 51 -102 52 -187
52 -47 -1 -103 -7 -124 -14 -36 -12 -40 -11 -64 10 -31 29 -83 108 -83 126 0
11 143 13 765 13 l766 0 -16 -31z"/>
<path d="M1130 1375 c-25 -21 -76 -79 -114 -129 -38 -50 -187 -243 -330 -429
-144 -186 -276 -359 -294 -384 -39 -54 -43 -107 -11 -147 l20 -26 799 0 799 0
28 24 c24 20 28 32 28 73 0 47 -4 53 -147 238 -388 503 -586 751 -619 777 -21
17 -54 32 -76 35 -34 4 -44 0 -83 -32z m125 -307 c85 -105 276 -344 382 -479
l92 -117 -182 -7 c-100 -3 -343 -5 -539 -3 l-357 3 174 225 c96 124 199 254
228 290 30 36 69 86 88 113 18 26 38 47 44 47 6 0 37 -33 70 -72z"/>
</g>
</svg>
